<svg xmlns="http://www.w3.org/2000/svg" xmlns:xlink="http://www.w3.org/1999/xlink" width="500" zoomAndPan="magnify" viewBox="0 0 375 374.999991" height="500" preserveAspectRatio="xMidYMid meet" version="1.0"><defs><g/><clipPath id="d833fd94bc"><path d="M 18.320312 18.320312 L 356.570312 18.320312 L 356.570312 356.570312 L 18.320312 356.570312 Z M 18.320312 18.320312 " clip-rule="nonzero"/></clipPath><clipPath id="c4e6c9fac6"><path d="M 187.496094 18.320312 C 94.0625 18.320312 18.320312 94.0625 18.320312 187.496094 C 18.320312 280.929688 94.0625 356.675781 187.496094 356.675781 C 280.929688 356.675781 356.675781 280.929688 356.675781 187.496094 C 356.675781 94.0625 280.929688 18.320312 187.496094 18.320312 Z M 187.496094 18.320312 " clip-rule="nonzero"/></clipPath><clipPath id="a01eb7b8f0"><path d="M 28.355469 28.355469 L 346.644531 28.355469 L 346.644531 346.644531 L 28.355469 346.644531 Z M 28.355469 28.355469 " clip-rule="nonzero"/></clipPath><clipPath id="666de8dae1"><path d="M 187.5 28.355469 C 99.605469 28.355469 28.355469 99.605469 28.355469 187.5 C 28.355469 275.394531 99.605469 346.644531 187.5 346.644531 C 275.394531 346.644531 346.644531 275.394531 346.644531 187.5 C 346.644531 99.605469 275.394531 28.355469 187.5 28.355469 Z M 187.5 28.355469 " clip-rule="nonzero"/></clipPath><clipPath id="6916af31c7"><path d="M 89.300781 89.300781 L 285.699219 89.300781 L 285.699219 285.699219 L 89.300781 285.699219 Z M 89.300781 89.300781 " clip-rule="nonzero"/></clipPath><clipPath id="a34d71bc2b"><path d="M 187.5 89.300781 C 133.265625 89.300781 89.300781 133.265625 89.300781 187.5 C 89.300781 241.734375 133.265625 285.699219 187.5 285.699219 C 241.734375 285.699219 285.699219 241.734375 285.699219 187.5 C 285.699219 133.265625 241.734375 89.300781 187.5 89.300781 Z M 187.5 89.300781 " clip-rule="nonzero"/></clipPath><clipPath id="ce335544ac"><path d="M 89.300781 89.300781 L 285.695312 89.300781 L 285.695312 285.695312 L 89.300781 285.695312 Z M 89.300781 89.300781 " clip-rule="nonzero"/></clipPath><clipPath id="4240276bdd"><path d="M 187.5 89.300781 C 133.265625 89.300781 89.300781 133.265625 89.300781 187.5 C 89.300781 241.730469 133.265625 285.695312 187.5 285.695312 C 241.730469 285.695312 285.695312 241.730469 285.695312 187.5 C 285.695312 133.265625 241.730469 89.300781 187.5 89.300781 Z M 187.5 89.300781 " clip-rule="nonzero"/></clipPath><clipPath id="0243898e3e"><path d="M 302.207031 197.367188 L 326.957031 197.367188 L 326.957031 220.617188 L 302.207031 220.617188 Z M 302.207031 197.367188 " clip-rule="nonzero"/></clipPath><clipPath id="cacfc8041c"><path d="M 47.832031 197.367188 L 72.582031 197.367188 L 72.582031 220.617188 L 47.832031 220.617188 Z M 47.832031 197.367188 " clip-rule="nonzero"/></clipPath><clipPath id="f22a23e287"><path d="M 187 217 L 263 217 L 263 270.199219 L 187 270.199219 Z M 187 217 " clip-rule="nonzero"/></clipPath></defs><rect x="-37.5" width="450" fill="#ffffff" y="-37.499999" height="449.999989" fill-opacity="1"/><rect x="-37.5" width="450" fill="#ffffff" y="-37.499999" height="449.999989" fill-opacity="1"/><g clip-path="url(#d833fd94bc)"><g clip-path="url(#c4e6c9fac6)"><path stroke-linecap="butt" transform="matrix(0.75, 0, 0, 0.75, 18.319127, 18.319122)" fill="none" stroke-linejoin="miter" d="M 225.56929 0.00158702 C 100.991165 0.00158702 0.00158102 100.991171 0.00158102 225.569296 C 0.00158102 350.147421 100.991165 451.142213 225.56929 451.142213 C 350.147415 451.142213 451.142207 350.147421 451.142207 225.569296 C 451.142207 100.991171 350.147415 0.00158702 225.56929 0.00158702 Z M 225.56929 0.00158702 " stroke="#033860" stroke-width="8" stroke-opacity="1" stroke-miterlimit="4"/></g></g><g clip-path="url(#a01eb7b8f0)"><g clip-path="url(#666de8dae1)"><path fill="#033860" d="M 28.355469 28.355469 L 346.644531 28.355469 L 346.644531 346.644531 L 28.355469 346.644531 Z M 28.355469 28.355469 " fill-opacity="1" fill-rule="nonzero"/></g></g><g clip-path="url(#6916af31c7)"><g clip-path="url(#a34d71bc2b)"><path fill="#ffffff" d="M 89.300781 89.300781 L 285.699219 89.300781 L 285.699219 285.699219 L 89.300781 285.699219 Z M 89.300781 89.300781 " fill-opacity="1" fill-rule="nonzero"/></g></g><g clip-path="url(#ce335544ac)"><g clip-path="url(#4240276bdd)"><path stroke-linecap="butt" transform="matrix(0.75, 0, 0, 0.75, 89.301306, 89.301301)" fill="none" stroke-linejoin="miter" d="M 130.931601 -0.000693448 C 58.619096 -0.000693448 -0.000699448 58.619102 -0.000699448 130.931607 C -0.000699448 203.238903 58.619096 261.858699 130.931601 261.858699 C 203.238897 261.858699 261.858693 203.238903 261.858693 130.931607 C 261.858693 58.619102 203.238897 -0.000693448 130.931601 -0.000693448 Z M 130.931601 -0.000693448 " stroke="#ffffff" stroke-width="12" stroke-opacity="1" stroke-miterlimit="4"/></g></g><g fill="#ffffff" fill-opacity="1"><g transform="translate(60.295136, 243.776197)"><g><path d="M 3.109375 6.03125 L 1.296875 2.53125 C 1.109375 2.164062 1.195312 1.890625 1.5625 1.703125 L 20.625 -8.09375 C 20.976562 -8.28125 21.25 -8.191406 21.4375 -7.828125 L 27.484375 3.921875 C 27.671875 4.285156 27.585938 4.5625 27.234375 4.75 L 24.34375 6.234375 C 23.988281 6.410156 23.71875 6.316406 23.53125 5.953125 L 19.5625 -1.75 L 13.921875 1.15625 L 17.3125 7.734375 C 17.5 8.085938 17.410156 8.359375 17.046875 8.546875 L 14.390625 9.90625 C 14.023438 10.09375 13.75 10.007812 13.5625 9.65625 L 10.171875 3.078125 L 3.921875 6.296875 C 3.554688 6.484375 3.285156 6.394531 3.109375 6.03125 Z M 3.109375 6.03125 "/></g></g></g><g fill="#ffffff" fill-opacity="1"><g transform="translate(74.701848, 269.77309)"><g><path d="M 8.453125 10.46875 C 7.265625 9.125 6.390625 7.707031 5.828125 6.21875 C 5.273438 4.738281 5.035156 3.25 5.109375 1.75 C 5.179688 0.25 5.570312 -1.203125 6.28125 -2.609375 C 6.988281 -4.015625 8.019531 -5.3125 9.375 -6.5 C 10.726562 -7.6875 12.144531 -8.539062 13.625 -9.0625 C 15.101562 -9.582031 16.59375 -9.785156 18.09375 -9.671875 C 19.59375 -9.554688 21.039062 -9.125 22.4375 -8.375 C 23.84375 -7.632812 25.140625 -6.59375 26.328125 -5.25 C 27.515625 -3.90625 28.382812 -2.488281 28.9375 -1 C 29.5 0.488281 29.742188 1.984375 29.671875 3.484375 C 29.597656 4.984375 29.207031 6.4375 28.5 7.84375 C 27.800781 9.25 26.773438 10.546875 25.421875 11.734375 C 24.066406 12.921875 22.644531 13.773438 21.15625 14.296875 C 19.675781 14.816406 18.1875 15.019531 16.6875 14.90625 C 15.1875 14.789062 13.734375 14.359375 12.328125 13.609375 C 10.929688 12.859375 9.640625 11.8125 8.453125 10.46875 Z M 11.984375 7.375 C 12.660156 8.144531 13.40625 8.738281 14.21875 9.15625 C 15.03125 9.570312 15.878906 9.804688 16.765625 9.859375 C 17.648438 9.910156 18.539062 9.773438 19.4375 9.453125 C 20.332031 9.128906 21.191406 8.601562 22.015625 7.875 C 22.847656 7.144531 23.476562 6.359375 23.90625 5.515625 C 24.34375 4.671875 24.585938 3.804688 24.640625 2.921875 C 24.703125 2.035156 24.578125 1.160156 24.265625 0.296875 C 23.953125 -0.554688 23.457031 -1.367188 22.78125 -2.140625 C 22.101562 -2.898438 21.359375 -3.488281 20.546875 -3.90625 C 19.734375 -4.332031 18.882812 -4.570312 18 -4.625 C 17.113281 -4.675781 16.226562 -4.535156 15.34375 -4.203125 C 14.46875 -3.878906 13.613281 -3.351562 12.78125 -2.625 C 11.957031 -1.90625 11.328125 -1.125 10.890625 -0.28125 C 10.453125 0.5625 10.203125 1.425781 10.140625 2.3125 C 10.078125 3.195312 10.203125 4.070312 10.515625 4.9375 C 10.828125 5.800781 11.316406 6.613281 11.984375 7.375 Z M 11.984375 7.375 "/></g></g></g><g fill="#ffffff" fill-opacity="1"><g transform="translate(101.966121, 297.886164)"><g><path d="M 9.375 6.84375 C 8.3125 6.144531 7.382812 5.347656 6.59375 4.453125 C 5.8125 3.566406 5.222656 2.609375 4.828125 1.578125 C 4.441406 0.546875 4.316406 -0.535156 4.453125 -1.671875 C 4.585938 -2.816406 5.046875 -3.984375 5.828125 -5.171875 L 13.796875 -17.3125 C 14.023438 -17.65625 14.304688 -17.710938 14.640625 -17.484375 L 18.046875 -15.265625 C 18.378906 -15.035156 18.429688 -14.75 18.203125 -14.40625 L 10.90625 -3.296875 C 10.300781 -2.367188 9.953125 -1.53125 9.859375 -0.78125 C 9.765625 -0.03125 9.898438 0.644531 10.265625 1.25 C 10.628906 1.863281 11.1875 2.421875 11.9375 2.921875 C 12.707031 3.429688 13.441406 3.726562 14.140625 3.8125 C 14.847656 3.894531 15.523438 3.742188 16.171875 3.359375 C 16.828125 2.984375 17.457031 2.332031 18.0625 1.40625 L 25.359375 -9.703125 C 25.585938 -10.046875 25.867188 -10.113281 26.203125 -9.90625 L 29.609375 -7.65625 C 29.941406 -7.4375 29.992188 -7.15625 29.765625 -6.8125 L 21.796875 5.328125 C 21.015625 6.515625 20.132812 7.398438 19.15625 7.984375 C 18.175781 8.566406 17.140625 8.882812 16.046875 8.9375 C 14.953125 9 13.835938 8.84375 12.703125 8.46875 C 11.566406 8.09375 10.457031 7.550781 9.375 6.84375 Z M 9.375 6.84375 "/></g></g></g><g fill="#ffffff" fill-opacity="1"><g transform="translate(132.257542, 315.96431)"><g><path d="M 6.328125 2.125 L 2.71875 0.921875 C 2.332031 0.785156 2.203125 0.523438 2.328125 0.140625 L 9.21875 -20.265625 C 9.382812 -20.753906 9.625 -21.019531 9.9375 -21.0625 C 10.257812 -21.101562 10.550781 -20.875 10.8125 -20.375 L 18.890625 -4.203125 L 22.734375 -15.609375 C 22.859375 -15.992188 23.109375 -16.117188 23.484375 -15.984375 L 27.078125 -14.78125 C 27.460938 -14.644531 27.59375 -14.382812 27.46875 -14 L 20.59375 6.390625 C 20.476562 6.710938 20.320312 6.9375 20.125 7.0625 C 19.925781 7.1875 19.71875 7.191406 19.5 7.078125 C 19.28125 6.972656 19.078125 6.738281 18.890625 6.375 L 11 -9.953125 L 7.0625 1.734375 C 6.9375 2.117188 6.691406 2.25 6.328125 2.125 Z M 6.328125 2.125 "/></g></g></g><g fill="#ffffff" fill-opacity="1"><g transform="translate(166.757403, 325.920618)"><g><path d="M 9.6875 0.671875 L 2.84375 0.203125 C 2.4375 0.171875 2.25 -0.046875 2.28125 -0.453125 L 3.75 -21.84375 C 3.78125 -22.25 4 -22.4375 4.40625 -22.40625 L 11.25 -21.9375 C 13.957031 -21.75 16.175781 -21.144531 17.90625 -20.125 C 19.644531 -19.101562 20.90625 -17.71875 21.6875 -15.96875 C 22.476562 -14.226562 22.789062 -12.160156 22.625 -9.765625 C 22.457031 -7.421875 21.875 -5.4375 20.875 -3.8125 C 19.875 -2.195312 18.441406 -1 16.578125 -0.21875 C 14.710938 0.5625 12.414062 0.859375 9.6875 0.671875 Z M 8.6875 -17.640625 L 7.75 -3.921875 L 10 -3.765625 C 12.300781 -3.609375 14.082031 -4.09375 15.34375 -5.21875 C 16.613281 -6.351562 17.320312 -8.015625 17.46875 -10.203125 C 17.625 -12.390625 17.148438 -14.109375 16.046875 -15.359375 C 14.941406 -16.617188 13.238281 -17.328125 10.9375 -17.484375 Z M 8.6875 -17.640625 "/></g></g></g><g fill="#ffffff" fill-opacity="1"><g transform="translate(202.057754, 326.798686)"><g><path d="M 7.75 -24.46875 L 21.671875 -4.734375 C 21.785156 -4.535156 21.816406 -4.363281 21.765625 -4.21875 C 21.710938 -4.070312 21.570312 -3.976562 21.34375 -3.9375 L 17.078125 -3.15625 C 16.734375 -3.09375 16.476562 -3.207031 16.3125 -3.5 L 14.84375 -5.78125 L 6.296875 -4.203125 L 5.78125 -1.546875 C 5.71875 -1.210938 5.515625 -1.015625 5.171875 -0.953125 L 0.90625 -0.171875 C 0.6875 -0.128906 0.519531 -0.164062 0.40625 -0.28125 C 0.300781 -0.394531 0.28125 -0.5625 0.34375 -0.78125 L 6.296875 -24.203125 C 6.398438 -24.648438 6.59375 -24.898438 6.875 -24.953125 C 7.164062 -25.015625 7.457031 -24.851562 7.75 -24.46875 Z M 8.59375 -15.734375 L 7.125 -8.390625 L 12.59375 -9.40625 Z M 8.59375 -15.734375 "/></g></g></g><g fill="#ffffff" fill-opacity="1"><g transform="translate(235.542958, 318.924979)"><g><path d="M 9.578125 -4.15625 L 5.921875 -2.5625 C 5.554688 -2.40625 5.289062 -2.515625 5.125 -2.890625 L -1.875 -19.03125 L -6.203125 -17.15625 C -6.578125 -17 -6.84375 -17.097656 -7 -17.453125 L -8.296875 -20.4375 C -8.453125 -20.8125 -8.34375 -21.078125 -7.96875 -21.234375 L 5.453125 -27.0625 C 5.816406 -27.21875 6.078125 -27.109375 6.234375 -26.734375 L 7.53125 -23.75 C 7.6875 -23.394531 7.582031 -23.140625 7.21875 -22.984375 L 2.890625 -21.109375 L 9.890625 -4.96875 C 10.054688 -4.59375 9.953125 -4.320312 9.578125 -4.15625 Z M 9.578125 -4.15625 "/></g></g></g><g fill="#ffffff" fill-opacity="1"><g transform="translate(260.805522, 306.528489)"><g><path d="M 5.65625 -3.75 L 2.375 -1.578125 C 2.03125 -1.347656 1.742188 -1.398438 1.515625 -1.734375 L -10.328125 -19.609375 C -10.554688 -19.941406 -10.5 -20.222656 -10.15625 -20.453125 L -6.875 -22.625 C -6.539062 -22.851562 -6.257812 -22.800781 -6.03125 -22.46875 L 5.8125 -4.59375 C 6.039062 -4.257812 5.988281 -3.976562 5.65625 -3.75 Z M 5.65625 -3.75 "/></g></g></g><g fill="#ffffff" fill-opacity="1"><g transform="translate(278.413219, 294.448075)"><g><path d="M 9.78125 -9.25 C 8.53125 -7.96875 7.1875 -6.988281 5.75 -6.3125 C 4.3125 -5.632812 2.84375 -5.269531 1.34375 -5.21875 C -0.15625 -5.175781 -1.632812 -5.453125 -3.09375 -6.046875 C -4.550781 -6.640625 -5.929688 -7.5625 -7.234375 -8.8125 C -8.523438 -10.070312 -9.488281 -11.421875 -10.125 -12.859375 C -10.757812 -14.296875 -11.078125 -15.765625 -11.078125 -17.265625 C -11.078125 -18.765625 -10.765625 -20.242188 -10.140625 -21.703125 C -9.515625 -23.171875 -8.578125 -24.546875 -7.328125 -25.828125 C -6.078125 -27.117188 -4.726562 -28.097656 -3.28125 -28.765625 C -1.84375 -29.441406 -0.375 -29.804688 1.125 -29.859375 C 2.625 -29.910156 4.097656 -29.640625 5.546875 -29.046875 C 7.003906 -28.453125 8.378906 -27.523438 9.671875 -26.265625 C 10.972656 -25.015625 11.941406 -23.671875 12.578125 -22.234375 C 13.222656 -20.796875 13.546875 -19.320312 13.546875 -17.8125 C 13.546875 -16.3125 13.226562 -14.832031 12.59375 -13.375 C 11.96875 -11.914062 11.03125 -10.539062 9.78125 -9.25 Z M 6.390625 -12.53125 C 7.097656 -13.269531 7.628906 -14.0625 7.984375 -14.90625 C 8.335938 -15.75 8.507812 -16.613281 8.5 -17.5 C 8.488281 -18.382812 8.28125 -19.257812 7.875 -20.125 C 7.476562 -20.988281 6.882812 -21.800781 6.09375 -22.5625 C 5.300781 -23.332031 4.46875 -23.898438 3.59375 -24.265625 C 2.726562 -24.640625 1.847656 -24.820312 0.953125 -24.8125 C 0.0664062 -24.800781 -0.789062 -24.601562 -1.625 -24.21875 C -2.457031 -23.832031 -3.226562 -23.269531 -3.9375 -22.53125 C -4.644531 -21.800781 -5.175781 -21.015625 -5.53125 -20.171875 C -5.882812 -19.328125 -6.050781 -18.460938 -6.03125 -17.578125 C -6.019531 -16.691406 -5.816406 -15.816406 -5.421875 -14.953125 C -5.023438 -14.097656 -4.429688 -13.285156 -3.640625 -12.515625 C -2.847656 -11.753906 -2.015625 -11.191406 -1.140625 -10.828125 C -0.265625 -10.460938 0.613281 -10.28125 1.5 -10.28125 C 2.382812 -10.289062 3.242188 -10.488281 4.078125 -10.875 C 4.921875 -11.257812 5.691406 -11.8125 6.390625 -12.53125 Z M 6.390625 -12.53125 "/></g></g></g><g fill="#ffffff" fill-opacity="1"><g transform="translate(304.307159, 265.028373)"><g><path d="M 3.1875 -5.859375 L 1.375 -2.53125 C 1.175781 -2.164062 0.898438 -2.082031 0.546875 -2.28125 L -18.359375 -12.578125 C -18.816406 -12.828125 -19.035156 -13.113281 -19.015625 -13.4375 C -19.003906 -13.757812 -18.726562 -14.007812 -18.1875 -14.1875 L -0.875 -19.328125 L -11.4375 -25.078125 C -11.789062 -25.273438 -11.875 -25.550781 -11.6875 -25.90625 L -9.875 -29.234375 C -9.675781 -29.585938 -9.398438 -29.664062 -9.046875 -29.46875 L 9.84375 -19.171875 C 10.144531 -19.003906 10.34375 -18.8125 10.4375 -18.59375 C 10.53125 -18.382812 10.5 -18.179688 10.34375 -17.984375 C 10.195312 -17.785156 9.929688 -17.625 9.546875 -17.5 L -7.890625 -12.546875 L 2.9375 -6.65625 C 3.289062 -6.457031 3.375 -6.191406 3.1875 -5.859375 Z M 3.1875 -5.859375 "/></g></g></g><g fill="#ffffff" fill-opacity="1"><g transform="translate(68.860253, 181.720333)"><g><path d="M -20.703125 -15.21875 L 2.46875 -22.0625 C 2.6875 -22.125 2.859375 -22.101562 2.984375 -22 C 3.109375 -21.894531 3.15625 -21.734375 3.125 -21.515625 L 2.5 -17.1875 C 2.445312 -16.851562 2.257812 -16.648438 1.9375 -16.578125 L -0.703125 -15.9375 L -1.953125 -7.3125 L 0.390625 -5.96875 C 0.679688 -5.800781 0.800781 -5.546875 0.75 -5.203125 L 0.125 -0.90625 C 0.09375 -0.695312 0.00390625 -0.554688 -0.140625 -0.484375 C -0.285156 -0.421875 -0.457031 -0.453125 -0.65625 -0.578125 L -20.921875 -13.734375 C -21.316406 -13.992188 -21.492188 -14.269531 -21.453125 -14.5625 C -21.410156 -14.851562 -21.160156 -15.070312 -20.703125 -15.21875 Z M -12.171875 -13.203125 L -5.640625 -9.453125 L -4.84375 -14.96875 Z M -12.171875 -13.203125 "/></g></g></g><g fill="#ffffff" fill-opacity="1"><g transform="translate(73.679462, 154.580125)"><g><path d="M 4.828125 -13.359375 L 0.96875 -2.671875 C 0.832031 -2.296875 0.570312 -2.175781 0.1875 -2.3125 L -20 -9.609375 C -20.375 -9.742188 -20.492188 -10 -20.359375 -10.375 L -19.015625 -14.09375 C -18.878906 -14.46875 -18.625 -14.585938 -18.25 -14.453125 L -1.671875 -8.46875 L 0.640625 -14.875 C 0.773438 -15.257812 1.03125 -15.382812 1.40625 -15.25 L 4.453125 -14.140625 C 4.835938 -14.003906 4.960938 -13.742188 4.828125 -13.359375 Z M 4.828125 -13.359375 "/></g></g></g><g fill="#ffffff" fill-opacity="1"><g transform="translate(81.089654, 135.392197)"><g><path d="M 7.0625 -12.328125 L 1.40625 -2.46875 C 1.21875 -2.125 0.945312 -2.050781 0.59375 -2.25 L -18.03125 -12.9375 C -18.375 -13.125 -18.453125 -13.390625 -18.265625 -13.734375 L -16.296875 -17.15625 C -16.097656 -17.5 -15.828125 -17.578125 -15.484375 -17.390625 L -0.1875 -8.625 L 3.203125 -14.546875 C 3.398438 -14.890625 3.671875 -14.960938 4.015625 -14.765625 L 6.828125 -13.140625 C 7.179688 -12.941406 7.257812 -12.671875 7.0625 -12.328125 Z M 7.0625 -12.328125 "/></g></g></g><g fill="#ffffff" fill-opacity="1"><g transform="translate(91.972693, 117.677683)"><g/></g></g><g fill="#ffffff" fill-opacity="1"><g transform="translate(101.608819, 106.10947)"><g><path d="M 4.875 -4.734375 L 2.03125 -1.984375 C 1.75 -1.703125 1.46875 -1.707031 1.1875 -2 L -13.78125 -17.390625 C -14.050781 -17.671875 -14.046875 -17.953125 -13.765625 -18.234375 L -10.921875 -20.984375 C -10.640625 -21.265625 -10.363281 -21.265625 -10.09375 -20.984375 L 4.875 -5.59375 C 5.15625 -5.300781 5.15625 -5.015625 4.875 -4.734375 Z M 4.875 -4.734375 "/></g></g></g><g fill="#ffffff" fill-opacity="1"><g transform="translate(112.09022, 95.66939)"><g><path d="M 5.5625 -3.6875 L 2.390625 -1.59375 C 2.066406 -1.375 1.789062 -1.429688 1.5625 -1.765625 L -10.359375 -19.71875 C -10.648438 -20.144531 -10.71875 -20.5 -10.5625 -20.78125 C -10.40625 -21.0625 -10.050781 -21.15625 -9.5 -21.0625 L 8.25 -17.53125 L 1.578125 -27.5625 C 1.359375 -27.882812 1.414062 -28.160156 1.75 -28.390625 L 4.90625 -30.484375 C 5.238281 -30.703125 5.515625 -30.648438 5.734375 -30.328125 L 17.65625 -12.375 C 17.84375 -12.09375 17.925781 -11.835938 17.90625 -11.609375 C 17.894531 -11.378906 17.773438 -11.210938 17.546875 -11.109375 C 17.328125 -11.003906 17.015625 -10.984375 16.609375 -11.046875 L -1.125 -14.796875 L 5.703125 -4.515625 C 5.929688 -4.179688 5.882812 -3.90625 5.5625 -3.6875 Z M 5.5625 -3.6875 "/></g></g></g><g fill="#ffffff" fill-opacity="1"><g transform="translate(136.073085, 80.415481)"><g><path d="M 9.125 -3.328125 L 2.671875 -0.96875 C 2.296875 -0.832031 2.039062 -0.957031 1.90625 -1.34375 L -5.453125 -21.515625 C -5.585938 -21.878906 -5.46875 -22.128906 -5.09375 -22.265625 L 1.359375 -24.625 C 3.910156 -25.550781 6.1875 -25.90625 8.1875 -25.6875 C 10.195312 -25.46875 11.910156 -24.71875 13.328125 -23.4375 C 14.753906 -22.15625 15.878906 -20.390625 16.703125 -18.140625 C 17.503906 -15.929688 17.78125 -13.878906 17.53125 -11.984375 C 17.28125 -10.085938 16.460938 -8.40625 15.078125 -6.9375 C 13.691406 -5.46875 11.707031 -4.265625 9.125 -3.328125 Z M 0.765625 -19.671875 L 5.46875 -6.734375 L 7.59375 -7.515625 C 9.769531 -8.304688 11.207031 -9.476562 11.90625 -11.03125 C 12.601562 -12.582031 12.582031 -14.382812 11.84375 -16.4375 C 11.082031 -18.5 9.941406 -19.878906 8.421875 -20.578125 C 6.910156 -21.285156 5.066406 -21.242188 2.890625 -20.453125 Z M 0.765625 -19.671875 "/></g></g></g><g fill="#ffffff" fill-opacity="1"><g transform="translate(163.079434, 71.734803)"><g><path d="M 6.703125 -1.125 L 2.796875 -0.46875 C 2.410156 -0.40625 2.1875 -0.570312 2.125 -0.96875 L -1.453125 -22.140625 C -1.515625 -22.535156 -1.351562 -22.765625 -0.96875 -22.828125 L 2.9375 -23.484375 C 3.320312 -23.554688 3.546875 -23.394531 3.609375 -23 L 7.1875 -1.828125 C 7.25 -1.429688 7.085938 -1.195312 6.703125 -1.125 Z M 6.703125 -1.125 "/></g></g></g><g fill="#ffffff" fill-opacity="1"><g transform="translate(177.684133, 69.153263)"><g><path d="M 12.375 -22.515625 L 22.203125 -0.421875 C 22.285156 -0.210938 22.285156 -0.046875 22.203125 0.078125 C 22.117188 0.210938 21.960938 0.28125 21.734375 0.28125 L 17.375 0.234375 C 17.03125 0.222656 16.800781 0.0625 16.6875 -0.25 L 15.71875 -2.78125 L 7.015625 -2.890625 L 5.96875 -0.390625 C 5.84375 -0.078125 5.609375 0.0703125 5.265625 0.0625 L 0.921875 0.015625 C 0.703125 0.00390625 0.546875 -0.0664062 0.453125 -0.203125 C 0.367188 -0.335938 0.378906 -0.507812 0.484375 -0.71875 L 10.875 -22.53125 C 11.082031 -22.96875 11.332031 -23.179688 11.625 -23.171875 C 11.925781 -23.171875 12.175781 -22.953125 12.375 -22.515625 Z M 11.515625 -13.796875 L 8.640625 -6.84375 L 14.203125 -6.765625 Z M 11.515625 -13.796875 "/></g></g></g><g fill="#ffffff" fill-opacity="1"><g transform="translate(205.431652, 70.569375)"><g/></g></g><g fill="#ffffff" fill-opacity="1"><g transform="translate(219.874237, 73.438095)"><g><path d="M 8.296875 3.703125 C 7.253906 3.316406 6.210938 2.820312 5.171875 2.21875 C 4.140625 1.625 3.0625 0.875 1.9375 -0.03125 C 1.613281 -0.3125 1.585938 -0.597656 1.859375 -0.890625 L 4.03125 -3.546875 C 4.28125 -3.847656 4.566406 -3.867188 4.890625 -3.609375 C 5.710938 -2.867188 6.550781 -2.226562 7.40625 -1.6875 C 8.269531 -1.144531 9.070312 -0.738281 9.8125 -0.46875 C 10.6875 -0.144531 11.445312 -0.0351562 12.09375 -0.140625 C 12.75 -0.242188 13.191406 -0.617188 13.421875 -1.265625 C 13.578125 -1.671875 13.566406 -2.09375 13.390625 -2.53125 C 13.222656 -2.96875 12.945312 -3.421875 12.5625 -3.890625 C 12.1875 -4.359375 11.75 -4.851562 11.25 -5.375 C 10.75 -5.894531 10.242188 -6.441406 9.734375 -7.015625 C 9.234375 -7.578125 8.769531 -8.160156 8.34375 -8.765625 C 7.914062 -9.367188 7.566406 -10 7.296875 -10.65625 C 7.023438 -11.320312 6.878906 -12.023438 6.859375 -12.765625 C 6.847656 -13.503906 6.992188 -14.289062 7.296875 -15.125 C 7.710938 -16.226562 8.265625 -17.09375 8.953125 -17.71875 C 9.640625 -18.34375 10.421875 -18.769531 11.296875 -19 C 12.179688 -19.238281 13.101562 -19.304688 14.0625 -19.203125 C 15.019531 -19.097656 15.972656 -18.867188 16.921875 -18.515625 C 17.472656 -18.316406 18.054688 -18.050781 18.671875 -17.71875 C 19.296875 -17.394531 19.914062 -17.03125 20.53125 -16.625 C 21.15625 -16.21875 21.742188 -15.78125 22.296875 -15.3125 C 22.609375 -15.070312 22.628906 -14.796875 22.359375 -14.484375 L 20.390625 -11.9375 C 20.128906 -11.613281 19.847656 -11.582031 19.546875 -11.84375 C 18.941406 -12.382812 18.285156 -12.878906 17.578125 -13.328125 C 16.867188 -13.773438 16.1875 -14.117188 15.53125 -14.359375 C 15.050781 -14.535156 14.59375 -14.640625 14.15625 -14.671875 C 13.726562 -14.710938 13.359375 -14.65625 13.046875 -14.5 C 12.734375 -14.34375 12.503906 -14.0625 12.359375 -13.65625 C 12.210938 -13.257812 12.195312 -12.867188 12.3125 -12.484375 C 12.425781 -12.097656 12.632812 -11.691406 12.9375 -11.265625 C 13.25 -10.847656 13.628906 -10.410156 14.078125 -9.953125 C 14.535156 -9.492188 15.019531 -9 15.53125 -8.46875 C 16.050781 -7.914062 16.554688 -7.328125 17.046875 -6.703125 C 17.546875 -6.078125 17.960938 -5.398438 18.296875 -4.671875 C 18.640625 -3.953125 18.835938 -3.171875 18.890625 -2.328125 C 18.941406 -1.492188 18.789062 -0.601562 18.4375 0.34375 C 18.09375 1.269531 17.644531 2.023438 17.09375 2.609375 C 16.550781 3.191406 15.9375 3.628906 15.25 3.921875 C 14.5625 4.222656 13.828125 4.398438 13.046875 4.453125 C 12.265625 4.515625 11.46875 4.472656 10.65625 4.328125 C 9.851562 4.191406 9.066406 3.984375 8.296875 3.703125 Z M 8.296875 3.703125 "/></g></g></g><g fill="#ffffff" fill-opacity="1"><g transform="translate(241.773986, 81.992142)"><g><path d="M 5.78125 3.640625 L 2.40625 1.515625 C 2.070312 1.304688 2.015625 1.03125 2.234375 0.6875 L 13.6875 -17.46875 C 13.894531 -17.800781 14.164062 -17.863281 14.5 -17.65625 L 21.65625 -13.140625 C 23 -12.296875 24.019531 -11.425781 24.71875 -10.53125 C 25.414062 -9.632812 25.859375 -8.734375 26.046875 -7.828125 C 26.234375 -6.929688 26.207031 -6.023438 25.96875 -5.109375 C 25.726562 -4.203125 25.328125 -3.300781 24.765625 -2.40625 C 23.898438 -1.039062 22.914062 -0.03125 21.8125 0.625 C 20.707031 1.28125 19.523438 1.570312 18.265625 1.5 C 17.003906 1.425781 15.707031 0.972656 14.375 0.140625 L 10.3125 -2.4375 L 6.609375 3.4375 C 6.390625 3.78125 6.113281 3.847656 5.78125 3.640625 Z M 16 -11.453125 L 12.6875 -6.203125 L 15.28125 -4.546875 C 15.476562 -4.429688 15.722656 -4.296875 16.015625 -4.140625 C 16.304688 -3.984375 16.632812 -3.847656 17 -3.734375 C 17.375 -3.617188 17.753906 -3.566406 18.140625 -3.578125 C 18.535156 -3.597656 18.925781 -3.722656 19.3125 -3.953125 C 19.695312 -4.191406 20.054688 -4.578125 20.390625 -5.109375 C 20.710938 -5.617188 20.894531 -6.085938 20.9375 -6.515625 C 20.976562 -6.941406 20.925781 -7.320312 20.78125 -7.65625 C 20.632812 -7.988281 20.4375 -8.289062 20.1875 -8.5625 C 19.9375 -8.832031 19.664062 -9.066406 19.375 -9.265625 C 19.09375 -9.472656 18.832031 -9.648438 18.59375 -9.796875 Z M 16 -11.453125 "/></g></g></g><g fill="#ffffff" fill-opacity="1"><g transform="translate(263.115557, 95.664696)"><g><path d="M 8.9375 10.09375 C 7.6875 8.800781 6.75 7.425781 6.125 5.96875 C 5.5 4.507812 5.1875 3.023438 5.1875 1.515625 C 5.195312 0.015625 5.519531 -1.453125 6.15625 -2.890625 C 6.800781 -4.335938 7.769531 -5.6875 9.0625 -6.9375 C 10.363281 -8.195312 11.742188 -9.117188 13.203125 -9.703125 C 14.660156 -10.285156 16.140625 -10.550781 17.640625 -10.5 C 19.140625 -10.457031 20.609375 -10.097656 22.046875 -9.421875 C 23.484375 -8.742188 24.828125 -7.757812 26.078125 -6.46875 C 27.316406 -5.175781 28.25 -3.800781 28.875 -2.34375 C 29.507812 -0.882812 29.828125 0.597656 29.828125 2.109375 C 29.835938 3.617188 29.519531 5.085938 28.875 6.515625 C 28.238281 7.953125 27.269531 9.300781 25.96875 10.5625 C 24.675781 11.8125 23.300781 12.734375 21.84375 13.328125 C 20.382812 13.921875 18.898438 14.191406 17.390625 14.140625 C 15.878906 14.085938 14.398438 13.722656 12.953125 13.046875 C 11.515625 12.367188 10.175781 11.382812 8.9375 10.09375 Z M 12.34375 6.8125 C 13.050781 7.539062 13.820312 8.09375 14.65625 8.46875 C 15.488281 8.851562 16.347656 9.050781 17.234375 9.0625 C 18.117188 9.082031 19 8.90625 19.875 8.53125 C 20.75 8.164062 21.582031 7.601562 22.375 6.84375 C 23.164062 6.082031 23.757812 5.269531 24.15625 4.40625 C 24.5625 3.539062 24.769531 2.660156 24.78125 1.765625 C 24.800781 0.878906 24.632812 0.015625 24.28125 -0.828125 C 23.9375 -1.679688 23.410156 -2.472656 22.703125 -3.203125 C 21.984375 -3.941406 21.207031 -4.5 20.375 -4.875 C 19.539062 -5.25 18.679688 -5.441406 17.796875 -5.453125 C 16.921875 -5.472656 16.039062 -5.296875 15.15625 -4.921875 C 14.28125 -4.546875 13.445312 -3.976562 12.65625 -3.21875 C 11.875 -2.457031 11.28125 -1.644531 10.875 -0.78125 C 10.476562 0.0820312 10.269531 0.957031 10.25 1.84375 C 10.226562 2.726562 10.394531 3.59375 10.75 4.4375 C 11.101562 5.28125 11.632812 6.070312 12.34375 6.8125 Z M 12.34375 6.8125 "/></g></g></g><g fill="#ffffff" fill-opacity="1"><g transform="translate(284.348225, 118.916903)"><g><path d="M 15.265625 9.671875 L 10.703125 17.046875 C 10.566406 17.234375 10.421875 17.320312 10.265625 17.3125 C 10.109375 17.3125 9.972656 17.210938 9.859375 17.015625 L 7.59375 13.109375 C 7.4375 12.835938 7.453125 12.5625 7.640625 12.28125 L 12 5.609375 L 10.265625 2.625 L 4.25 6.109375 C 3.894531 6.316406 3.617188 6.25 3.421875 5.90625 L 1.421875 2.453125 C 1.222656 2.117188 1.300781 1.847656 1.65625 1.640625 L 20.234375 -9.109375 C 20.566406 -9.316406 20.832031 -9.253906 21.03125 -8.921875 L 25.28125 -1.59375 C 26.070312 -0.21875 26.570312 1.023438 26.78125 2.140625 C 26.988281 3.253906 26.96875 4.253906 26.71875 5.140625 C 26.46875 6.035156 26.019531 6.828125 25.375 7.515625 C 24.738281 8.210938 23.960938 8.828125 23.046875 9.359375 C 21.609375 10.191406 20.222656 10.632812 18.890625 10.6875 C 17.566406 10.738281 16.359375 10.398438 15.265625 9.671875 Z M 21.03125 -0.0625 L 19.484375 -2.71875 L 14.109375 0.390625 L 15.65625 3.046875 C 15.769531 3.242188 15.921875 3.484375 16.109375 3.765625 C 16.296875 4.046875 16.523438 4.320312 16.796875 4.59375 C 17.066406 4.863281 17.375 5.078125 17.71875 5.234375 C 18.070312 5.398438 18.476562 5.46875 18.9375 5.4375 C 19.394531 5.414062 19.894531 5.25 20.4375 4.9375 C 20.957031 4.632812 21.332031 4.304688 21.5625 3.953125 C 21.800781 3.597656 21.9375 3.234375 21.96875 2.859375 C 22 2.492188 21.960938 2.132812 21.859375 1.78125 C 21.753906 1.425781 21.625 1.09375 21.46875 0.78125 C 21.3125 0.46875 21.164062 0.1875 21.03125 -0.0625 Z M 21.03125 -0.0625 "/></g></g></g><g fill="#ffffff" fill-opacity="1"><g transform="translate(296.955827, 142.137742)"><g><path d="M 3.296875 9.921875 L 2.046875 6.140625 C 1.910156 5.753906 2.035156 5.5 2.421875 5.375 L 19.125 -0.1875 L 17.640625 -4.671875 C 17.515625 -5.054688 17.644531 -5.3125 18.03125 -5.4375 L 21.125 -6.46875 C 21.5 -6.59375 21.75 -6.460938 21.875 -6.078125 L 26.5 7.8125 C 26.625 8.195312 26.5 8.453125 26.125 8.578125 L 23.03125 9.609375 C 22.644531 9.734375 22.390625 9.601562 22.265625 9.21875 L 20.78125 4.75 L 4.078125 10.3125 C 3.691406 10.4375 3.429688 10.304688 3.296875 9.921875 Z M 3.296875 9.921875 "/></g></g></g><g fill="#ffffff" fill-opacity="1"><g transform="translate(303.510747, 163.10336)"><g><path d="M 0.578125 9.0625 C 0.441406 7.96875 0.394531 6.820312 0.4375 5.625 C 0.488281 4.4375 0.65625 3.125 0.9375 1.6875 C 1.039062 1.269531 1.28125 1.117188 1.65625 1.234375 L 5.015625 1.921875 C 5.390625 2.003906 5.535156 2.242188 5.453125 2.640625 C 5.191406 3.703125 5.019531 4.738281 4.9375 5.75 C 4.851562 6.769531 4.863281 7.671875 4.96875 8.453125 C 5.09375 9.378906 5.351562 10.109375 5.75 10.640625 C 6.144531 11.171875 6.6875 11.394531 7.375 11.3125 C 7.8125 11.257812 8.179688 11.050781 8.484375 10.6875 C 8.785156 10.332031 9.054688 9.875 9.296875 9.3125 C 9.535156 8.757812 9.769531 8.140625 10 7.453125 C 10.226562 6.773438 10.476562 6.070312 10.75 5.34375 C 11.007812 4.644531 11.304688 3.960938 11.640625 3.296875 C 11.984375 2.640625 12.382812 2.039062 12.84375 1.5 C 13.300781 0.957031 13.851562 0.503906 14.5 0.140625 C 15.144531 -0.222656 15.90625 -0.460938 16.78125 -0.578125 C 17.945312 -0.734375 18.96875 -0.648438 19.84375 -0.328125 C 20.726562 -0.00390625 21.472656 0.488281 22.078125 1.15625 C 22.691406 1.820312 23.175781 2.601562 23.53125 3.5 C 23.894531 4.40625 24.140625 5.359375 24.265625 6.359375 C 24.347656 6.941406 24.390625 7.582031 24.390625 8.28125 C 24.390625 8.976562 24.347656 9.691406 24.265625 10.421875 C 24.191406 11.160156 24.082031 11.882812 23.9375 12.59375 C 23.851562 12.988281 23.617188 13.144531 23.234375 13.0625 L 20.046875 12.5 C 19.648438 12.414062 19.5 12.175781 19.59375 11.78125 C 19.769531 10.988281 19.890625 10.175781 19.953125 9.34375 C 20.023438 8.507812 20.015625 7.75 19.921875 7.0625 C 19.859375 6.550781 19.742188 6.097656 19.578125 5.703125 C 19.410156 5.304688 19.1875 5.003906 18.90625 4.796875 C 18.625 4.585938 18.265625 4.515625 17.828125 4.578125 C 17.410156 4.628906 17.054688 4.796875 16.765625 5.078125 C 16.484375 5.367188 16.226562 5.75 16 6.21875 C 15.78125 6.6875 15.566406 7.222656 15.359375 7.828125 C 15.160156 8.441406 14.945312 9.097656 14.71875 9.796875 C 14.476562 10.523438 14.195312 11.253906 13.875 11.984375 C 13.550781 12.710938 13.148438 13.394531 12.671875 14.03125 C 12.191406 14.664062 11.59375 15.195312 10.875 15.625 C 10.15625 16.0625 9.289062 16.347656 8.28125 16.484375 C 7.3125 16.609375 6.4375 16.5625 5.65625 16.34375 C 4.882812 16.125 4.207031 15.78125 3.625 15.3125 C 3.039062 14.84375 2.535156 14.273438 2.109375 13.609375 C 1.691406 12.953125 1.359375 12.234375 1.109375 11.453125 C 0.867188 10.679688 0.691406 9.882812 0.578125 9.0625 Z M 0.578125 9.0625 "/></g></g></g><g clip-path="url(#0243898e3e)"><path fill="#ffc33d" d="M 314.5625 197.367188 L 317.746094 204.523438 C 317.867188 204.796875 318.0625 205.035156 318.304688 205.214844 C 318.546875 205.390625 318.832031 205.5 319.132812 205.53125 L 326.921875 206.347656 L 321.101562 211.585938 C 320.875 211.785156 320.710938 212.042969 320.617188 212.328125 C 320.523438 212.613281 320.507812 212.921875 320.570312 213.214844 L 322.203125 220.875 L 315.421875 216.957031 C 315.160156 216.804688 314.863281 216.726562 314.5625 216.726562 C 314.261719 216.726562 313.96875 216.804688 313.707031 216.957031 L 306.925781 220.875 L 308.558594 213.214844 C 308.621094 212.921875 308.605469 212.613281 308.511719 212.328125 C 308.417969 212.042969 308.25 211.785156 308.027344 211.585938 L 302.207031 206.347656 L 309.996094 205.53125 C 310.292969 205.5 310.578125 205.390625 310.824219 205.214844 C 311.066406 205.035156 311.257812 204.796875 311.382812 204.523438 Z M 314.5625 197.367188 " fill-opacity="1" fill-rule="evenodd"/></g><g clip-path="url(#cacfc8041c)"><path fill="#ffc33d" d="M 60.191406 197.367188 L 63.375 204.523438 C 63.496094 204.796875 63.6875 205.035156 63.933594 205.214844 C 64.175781 205.390625 64.460938 205.5 64.761719 205.53125 L 72.550781 206.347656 L 66.726562 211.585938 C 66.503906 211.785156 66.335938 212.042969 66.242188 212.328125 C 66.152344 212.613281 66.136719 212.921875 66.199219 213.214844 L 67.828125 220.875 L 61.046875 216.957031 C 60.789062 216.804688 60.492188 216.726562 60.191406 216.726562 C 59.890625 216.726562 59.59375 216.804688 59.335938 216.957031 L 52.554688 220.875 L 54.183594 213.214844 C 54.246094 212.921875 54.230469 212.613281 54.136719 212.328125 C 54.046875 212.042969 53.878906 211.785156 53.65625 211.585938 L 47.832031 206.347656 L 55.621094 205.53125 C 55.921875 205.5 56.207031 205.390625 56.449219 205.214844 C 56.695312 205.035156 56.886719 204.796875 57.007812 204.523438 Z M 60.191406 197.367188 " fill-opacity="1" fill-rule="evenodd"/></g><path fill="#f68712" d="M 164.488281 131.9375 C 161.640625 133.726562 157.960938 135.449219 153.304688 137 C 142.96875 140.445312 132.078125 138.726562 121.734375 141.480469 C 119.117188 142.175781 115.226562 144.035156 112.867188 146.46875 C 112.867188 146.46875 120.082031 132.785156 141.113281 124.613281 C 143.007812 123.875 145.019531 123.179688 147.148438 122.550781 C 160.0625 118.699219 156.421875 113.28125 150.773438 114.875 C 150.773438 114.875 155.453125 111.578125 162.089844 111.832031 C 172.09375 112.210938 178.769531 122.964844 164.488281 131.9375 " fill-opacity="1" fill-rule="nonzero"/><path fill="#f68712" d="M 215.863281 132.019531 C 213.785156 140.78125 207.414062 148.472656 200.214844 154.652344 C 192.25 161.496094 183.273438 166.484375 178.011719 169 C 143.683594 185.421875 109.234375 179.269531 105.144531 196.011719 C 105.144531 196.011719 96.976562 180.953125 116.246094 170.285156 C 126.859375 164.414062 132.804688 161.375 157.578125 152.390625 C 165.0625 149.675781 174.195312 146.363281 182.277344 141.054688 C 187.785156 137.4375 192.808594 132.898438 196.492188 126.988281 C 202.863281 116.761719 194.820312 106.609375 180.265625 105.75 C 202.433594 104.511719 219.628906 116.167969 215.863281 132.019531 " fill-opacity="1" fill-rule="nonzero"/><path fill="#3871c1" d="M 228.445312 192.8125 C 221.296875 198.328125 212.46875 203.535156 201.859375 208.226562 C 161.089844 226.253906 127.21875 222.308594 119.332031 239.550781 C 119.332031 239.550781 108.539062 216.9375 146.167969 204.683594 C 179.257812 193.914062 202.035156 183.542969 217.003906 173.667969 C 249.652344 152.132812 245.167969 132.929688 229.472656 116.941406 C 230.410156 117.503906 231.308594 118.058594 232.117188 118.574219 C 258.703125 137.21875 260.445312 168.113281 228.445312 192.8125 " fill-opacity="1" fill-rule="nonzero"/><path fill="#40b93c" d="M 261.148438 208.996094 C 256.496094 217.125 249.679688 223.914062 241.515625 229.664062 C 231.722656 236.558594 219.984375 241.953125 207.710938 246.347656 C 191.59375 252.121094 152.003906 256.925781 150.722656 266.15625 C 150.722656 266.15625 145.675781 256.765625 163.585938 247.621094 C 184.144531 237.121094 205.785156 228.921875 226.195312 218.101562 C 228.1875 217.046875 232.007812 215.117188 236.5 212.261719 C 250.449219 203.402344 270.855469 185.628906 262.894531 157.425781 C 263.1875 157.867188 277.730469 180.042969 261.148438 208.996094 " fill-opacity="1" fill-rule="nonzero"/><g clip-path="url(#f22a23e287)"><path fill="#40b93c" d="M 262.632812 217.539062 C 262.632812 217.539062 261.808594 229.695312 244.65625 245.378906 C 244.613281 245.425781 244.5625 245.46875 244.519531 245.511719 C 235.335938 253.878906 224.269531 259.925781 214.828125 263.890625 C 200.292969 269.996094 187.484375 270.105469 187.351562 270.144531 C 203.375 265.128906 226.777344 251.894531 243.441406 238.582031 C 252.789062 231.109375 260.019531 223.617188 262.632812 217.539062 " fill-opacity="1" fill-rule="nonzero"/></g><path fill="#fbc108" d="M 164.488281 131.9375 C 156.363281 128.550781 148.425781 126.214844 141.113281 124.613281 C 143.007812 123.875 145.019531 123.179688 147.148438 122.550781 C 160.0625 118.699219 156.421875 113.28125 150.773438 114.875 C 150.773438 114.875 155.453125 111.578125 162.089844 111.832031 C 172.09375 112.210938 178.769531 122.964844 164.488281 131.9375 " fill-opacity="1" fill-rule="nonzero"/><path fill="#fbc108" d="M 215.863281 132.019531 C 213.785156 140.78125 207.414062 148.472656 200.214844 154.652344 C 194.414062 149.324219 188.378906 144.835938 182.277344 141.054688 C 187.785156 137.4375 192.808594 132.898438 196.492188 126.988281 C 202.863281 116.761719 194.820312 106.609375 180.265625 105.75 C 202.433594 104.511719 219.628906 116.167969 215.863281 132.019531 " fill-opacity="1" fill-rule="nonzero"/><path fill="#00adef" d="M 228.445312 192.8125 C 224.957031 185.761719 221.113281 179.402344 217.003906 173.667969 C 249.652344 152.132812 245.167969 132.929688 229.472656 116.941406 C 230.410156 117.503906 231.308594 118.058594 232.117188 118.574219 C 258.703125 137.21875 260.445312 168.113281 228.445312 192.8125 " fill-opacity="1" fill-rule="nonzero"/><path fill="#80cc28" d="M 262.632812 217.539062 C 262.632812 217.539062 261.808594 229.695312 244.65625 245.378906 C 244.28125 243.070312 243.875 240.804688 243.441406 238.582031 C 252.789062 231.109375 260.019531 223.617188 262.632812 217.539062 " fill-opacity="1" fill-rule="nonzero"/><path fill="#80cc28" d="M 241.515625 229.664062 C 240.046875 223.523438 238.367188 217.730469 236.5 212.261719 C 250.449219 203.402344 270.855469 185.628906 262.894531 157.425781 C 263.1875 157.867188 277.730469 180.042969 261.148438 208.996094 C 256.496094 217.125 249.679688 223.914062 241.515625 229.664062 " fill-opacity="1" fill-rule="nonzero"/></svg>